<mxfile host="app.diagrams.net" modified="2021-04-20T08:02:26.797Z" agent="5.0 (Windows NT 10.0; Win64; x64) AppleWebKit/537.36 (KHTML, like Gecko) Chrome/89.0.4389.82 Safari/537.36" etag="13yriOR3YdpWh6sD6Q_I" version="14.6.3" type="github">
  <diagram id="C5RBs43oDa-KdzZeNtuy" name="Page-1">
    <mxGraphModel dx="7110" dy="3970" grid="1" gridSize="10" guides="1" tooltips="1" connect="1" arrows="1" fold="1" page="1" pageScale="1" pageWidth="827" pageHeight="1169" math="0" shadow="0">
      <root>
        <mxCell id="WIyWlLk6GJQsqaUBKTNV-0" />
        <mxCell id="WIyWlLk6GJQsqaUBKTNV-1" parent="WIyWlLk6GJQsqaUBKTNV-0" />
        <mxCell id="2L8aGsVkFupdmVweLym8-351" value="" style="edgeStyle=orthogonalEdgeStyle;rounded=0;orthogonalLoop=1;jettySize=auto;html=1;" edge="1" parent="WIyWlLk6GJQsqaUBKTNV-1" source="2L8aGsVkFupdmVweLym8-26" target="2L8aGsVkFupdmVweLym8-65">
          <mxGeometry relative="1" as="geometry" />
        </mxCell>
        <mxCell id="2L8aGsVkFupdmVweLym8-26" value="登录后台管理系统" style="rounded=1;whiteSpace=wrap;html=1;" vertex="1" parent="WIyWlLk6GJQsqaUBKTNV-1">
          <mxGeometry x="2160" y="20" width="120" height="60" as="geometry" />
        </mxCell>
        <mxCell id="2L8aGsVkFupdmVweLym8-27" value="工作台(预约、&lt;br&gt;访客数据展示)" style="rounded=0;whiteSpace=wrap;html=1;" vertex="1" parent="WIyWlLk6GJQsqaUBKTNV-1">
          <mxGeometry x="530" y="240" width="120" height="60" as="geometry" />
        </mxCell>
        <mxCell id="2L8aGsVkFupdmVweLym8-44" value="" style="endArrow=none;html=1;exitX=0.5;exitY=1;exitDx=0;exitDy=0;" edge="1" parent="WIyWlLk6GJQsqaUBKTNV-1" source="2L8aGsVkFupdmVweLym8-27">
          <mxGeometry width="50" height="50" relative="1" as="geometry">
            <mxPoint x="589.5" y="310" as="sourcePoint" />
            <mxPoint x="590" y="410" as="targetPoint" />
          </mxGeometry>
        </mxCell>
        <mxCell id="2L8aGsVkFupdmVweLym8-48" value="" style="endArrow=none;html=1;" edge="1" parent="WIyWlLk6GJQsqaUBKTNV-1">
          <mxGeometry width="50" height="50" relative="1" as="geometry">
            <mxPoint x="240" y="440" as="sourcePoint" />
            <mxPoint x="960" y="440" as="targetPoint" />
          </mxGeometry>
        </mxCell>
        <mxCell id="2L8aGsVkFupdmVweLym8-49" value="" style="endArrow=classic;html=1;" edge="1" parent="WIyWlLk6GJQsqaUBKTNV-1">
          <mxGeometry width="50" height="50" relative="1" as="geometry">
            <mxPoint x="239.5" y="441" as="sourcePoint" />
            <mxPoint x="239.5" y="471" as="targetPoint" />
          </mxGeometry>
        </mxCell>
        <mxCell id="2L8aGsVkFupdmVweLym8-53" value="" style="endArrow=classic;html=1;" edge="1" parent="WIyWlLk6GJQsqaUBKTNV-1">
          <mxGeometry width="50" height="50" relative="1" as="geometry">
            <mxPoint x="590" y="441" as="sourcePoint" />
            <mxPoint x="590" y="471" as="targetPoint" />
          </mxGeometry>
        </mxCell>
        <mxCell id="2L8aGsVkFupdmVweLym8-55" value="" style="endArrow=classic;html=1;" edge="1" parent="WIyWlLk6GJQsqaUBKTNV-1">
          <mxGeometry width="50" height="50" relative="1" as="geometry">
            <mxPoint x="959.5" y="441" as="sourcePoint" />
            <mxPoint x="959.5" y="471" as="targetPoint" />
          </mxGeometry>
        </mxCell>
        <mxCell id="2L8aGsVkFupdmVweLym8-63" value="" style="endArrow=none;html=1;" edge="1" parent="WIyWlLk6GJQsqaUBKTNV-1">
          <mxGeometry width="50" height="50" relative="1" as="geometry">
            <mxPoint x="590" y="190" as="sourcePoint" />
            <mxPoint x="920" y="190" as="targetPoint" />
          </mxGeometry>
        </mxCell>
        <mxCell id="2L8aGsVkFupdmVweLym8-64" value="" style="endArrow=classic;html=1;entryX=0.5;entryY=0;entryDx=0;entryDy=0;" edge="1" parent="WIyWlLk6GJQsqaUBKTNV-1" target="2L8aGsVkFupdmVweLym8-27">
          <mxGeometry width="50" height="50" relative="1" as="geometry">
            <mxPoint x="590" y="190" as="sourcePoint" />
            <mxPoint x="670" y="280" as="targetPoint" />
          </mxGeometry>
        </mxCell>
        <mxCell id="2L8aGsVkFupdmVweLym8-65" value="预约管理" style="rounded=0;whiteSpace=wrap;html=1;" vertex="1" parent="WIyWlLk6GJQsqaUBKTNV-1">
          <mxGeometry x="2160" y="270" width="120" height="60" as="geometry" />
        </mxCell>
        <mxCell id="2L8aGsVkFupdmVweLym8-72" value="&lt;span&gt;预约提醒&lt;/span&gt;" style="rounded=0;whiteSpace=wrap;html=1;" vertex="1" parent="WIyWlLk6GJQsqaUBKTNV-1">
          <mxGeometry x="180" y="471" width="120" height="60" as="geometry" />
        </mxCell>
        <mxCell id="2L8aGsVkFupdmVweLym8-73" value="&lt;span&gt;访客数据&lt;/span&gt;" style="rounded=0;whiteSpace=wrap;html=1;" vertex="1" parent="WIyWlLk6GJQsqaUBKTNV-1">
          <mxGeometry x="900" y="471" width="120" height="60" as="geometry" />
        </mxCell>
        <mxCell id="2L8aGsVkFupdmVweLym8-74" value="&lt;span&gt;预约数据&lt;/span&gt;" style="rounded=0;whiteSpace=wrap;html=1;" vertex="1" parent="WIyWlLk6GJQsqaUBKTNV-1">
          <mxGeometry x="530" y="471" width="120" height="60" as="geometry" />
        </mxCell>
        <mxCell id="2L8aGsVkFupdmVweLym8-78" value="" style="endArrow=none;html=1;" edge="1" parent="WIyWlLk6GJQsqaUBKTNV-1">
          <mxGeometry width="50" height="50" relative="1" as="geometry">
            <mxPoint x="920" y="190" as="sourcePoint" />
            <mxPoint x="3420" y="190" as="targetPoint" />
          </mxGeometry>
        </mxCell>
        <mxCell id="2L8aGsVkFupdmVweLym8-79" value="" style="endArrow=none;html=1;exitX=0.5;exitY=0;exitDx=0;exitDy=0;" edge="1" parent="WIyWlLk6GJQsqaUBKTNV-1" source="2L8aGsVkFupdmVweLym8-65">
          <mxGeometry width="50" height="50" relative="1" as="geometry">
            <mxPoint x="1990" y="430" as="sourcePoint" />
            <mxPoint x="2220" y="220" as="targetPoint" />
          </mxGeometry>
        </mxCell>
        <mxCell id="2L8aGsVkFupdmVweLym8-90" value="选择操作" style="rhombus;whiteSpace=wrap;html=1;" vertex="1" parent="WIyWlLk6GJQsqaUBKTNV-1">
          <mxGeometry x="200" y="561" width="80" height="80" as="geometry" />
        </mxCell>
        <mxCell id="2L8aGsVkFupdmVweLym8-91" value="" style="endArrow=classic;html=1;exitX=0.5;exitY=1;exitDx=0;exitDy=0;entryX=0.5;entryY=0;entryDx=0;entryDy=0;" edge="1" parent="WIyWlLk6GJQsqaUBKTNV-1" source="2L8aGsVkFupdmVweLym8-72" target="2L8aGsVkFupdmVweLym8-90">
          <mxGeometry width="50" height="50" relative="1" as="geometry">
            <mxPoint x="620" y="671" as="sourcePoint" />
            <mxPoint x="670" y="621" as="targetPoint" />
          </mxGeometry>
        </mxCell>
        <mxCell id="2L8aGsVkFupdmVweLym8-94" value="通过" style="rounded=0;whiteSpace=wrap;html=1;" vertex="1" parent="WIyWlLk6GJQsqaUBKTNV-1">
          <mxGeometry x="80" y="711" width="90" height="40" as="geometry" />
        </mxCell>
        <mxCell id="2L8aGsVkFupdmVweLym8-106" value="" style="endArrow=none;html=1;" edge="1" parent="WIyWlLk6GJQsqaUBKTNV-1">
          <mxGeometry width="50" height="50" relative="1" as="geometry">
            <mxPoint x="130" y="671" as="sourcePoint" />
            <mxPoint x="350" y="671" as="targetPoint" />
          </mxGeometry>
        </mxCell>
        <mxCell id="2L8aGsVkFupdmVweLym8-107" value="" style="endArrow=none;html=1;entryX=0.5;entryY=1;entryDx=0;entryDy=0;" edge="1" parent="WIyWlLk6GJQsqaUBKTNV-1" target="2L8aGsVkFupdmVweLym8-90">
          <mxGeometry width="50" height="50" relative="1" as="geometry">
            <mxPoint x="240" y="671" as="sourcePoint" />
            <mxPoint x="270" y="691" as="targetPoint" />
          </mxGeometry>
        </mxCell>
        <mxCell id="2L8aGsVkFupdmVweLym8-108" value="" style="endArrow=classic;html=1;" edge="1" parent="WIyWlLk6GJQsqaUBKTNV-1">
          <mxGeometry width="50" height="50" relative="1" as="geometry">
            <mxPoint x="130" y="671" as="sourcePoint" />
            <mxPoint x="130" y="711" as="targetPoint" />
          </mxGeometry>
        </mxCell>
        <mxCell id="2L8aGsVkFupdmVweLym8-109" value="拒绝" style="rounded=0;whiteSpace=wrap;html=1;" vertex="1" parent="WIyWlLk6GJQsqaUBKTNV-1">
          <mxGeometry x="300" y="711" width="90" height="40" as="geometry" />
        </mxCell>
        <mxCell id="2L8aGsVkFupdmVweLym8-110" value="" style="endArrow=classic;html=1;" edge="1" parent="WIyWlLk6GJQsqaUBKTNV-1">
          <mxGeometry width="50" height="50" relative="1" as="geometry">
            <mxPoint x="350" y="671" as="sourcePoint" />
            <mxPoint x="350" y="711" as="targetPoint" />
          </mxGeometry>
        </mxCell>
        <mxCell id="2L8aGsVkFupdmVweLym8-111" value="" style="endArrow=none;html=1;exitX=0.5;exitY=1;exitDx=0;exitDy=0;" edge="1" parent="WIyWlLk6GJQsqaUBKTNV-1" source="2L8aGsVkFupdmVweLym8-94">
          <mxGeometry width="50" height="50" relative="1" as="geometry">
            <mxPoint x="430" y="901" as="sourcePoint" />
            <mxPoint x="125" y="771" as="targetPoint" />
          </mxGeometry>
        </mxCell>
        <mxCell id="2L8aGsVkFupdmVweLym8-112" value="" style="endArrow=none;html=1;" edge="1" parent="WIyWlLk6GJQsqaUBKTNV-1">
          <mxGeometry width="50" height="50" relative="1" as="geometry">
            <mxPoint x="80" y="771" as="sourcePoint" />
            <mxPoint x="170" y="771" as="targetPoint" />
          </mxGeometry>
        </mxCell>
        <mxCell id="2L8aGsVkFupdmVweLym8-113" value="" style="endArrow=classic;html=1;" edge="1" parent="WIyWlLk6GJQsqaUBKTNV-1">
          <mxGeometry width="50" height="50" relative="1" as="geometry">
            <mxPoint x="170" y="771" as="sourcePoint" />
            <mxPoint x="170" y="801" as="targetPoint" />
          </mxGeometry>
        </mxCell>
        <mxCell id="2L8aGsVkFupdmVweLym8-114" value="模板消息通知" style="rounded=0;whiteSpace=wrap;html=1;" vertex="1" parent="WIyWlLk6GJQsqaUBKTNV-1">
          <mxGeometry x="130" y="801" width="80" height="30" as="geometry" />
        </mxCell>
        <mxCell id="2L8aGsVkFupdmVweLym8-116" value="" style="endArrow=classic;html=1;" edge="1" parent="WIyWlLk6GJQsqaUBKTNV-1">
          <mxGeometry width="50" height="50" relative="1" as="geometry">
            <mxPoint x="80" y="771" as="sourcePoint" />
            <mxPoint x="80" y="801" as="targetPoint" />
          </mxGeometry>
        </mxCell>
        <mxCell id="2L8aGsVkFupdmVweLym8-117" value="短信通知" style="rounded=0;whiteSpace=wrap;html=1;" vertex="1" parent="WIyWlLk6GJQsqaUBKTNV-1">
          <mxGeometry x="40" y="801" width="80" height="30" as="geometry" />
        </mxCell>
        <mxCell id="2L8aGsVkFupdmVweLym8-118" value="" style="endArrow=none;html=1;exitX=0.5;exitY=1;exitDx=0;exitDy=0;" edge="1" parent="WIyWlLk6GJQsqaUBKTNV-1">
          <mxGeometry width="50" height="50" relative="1" as="geometry">
            <mxPoint x="345" y="751" as="sourcePoint" />
            <mxPoint x="345" y="771" as="targetPoint" />
          </mxGeometry>
        </mxCell>
        <mxCell id="2L8aGsVkFupdmVweLym8-119" value="" style="endArrow=none;html=1;" edge="1" parent="WIyWlLk6GJQsqaUBKTNV-1">
          <mxGeometry width="50" height="50" relative="1" as="geometry">
            <mxPoint x="300" y="771" as="sourcePoint" />
            <mxPoint x="390" y="771" as="targetPoint" />
          </mxGeometry>
        </mxCell>
        <mxCell id="2L8aGsVkFupdmVweLym8-120" value="" style="endArrow=classic;html=1;" edge="1" parent="WIyWlLk6GJQsqaUBKTNV-1">
          <mxGeometry width="50" height="50" relative="1" as="geometry">
            <mxPoint x="390" y="771" as="sourcePoint" />
            <mxPoint x="390" y="801" as="targetPoint" />
          </mxGeometry>
        </mxCell>
        <mxCell id="2L8aGsVkFupdmVweLym8-121" value="模板消息通知" style="rounded=0;whiteSpace=wrap;html=1;" vertex="1" parent="WIyWlLk6GJQsqaUBKTNV-1">
          <mxGeometry x="350" y="801" width="80" height="30" as="geometry" />
        </mxCell>
        <mxCell id="2L8aGsVkFupdmVweLym8-122" value="" style="endArrow=classic;html=1;" edge="1" parent="WIyWlLk6GJQsqaUBKTNV-1">
          <mxGeometry width="50" height="50" relative="1" as="geometry">
            <mxPoint x="300" y="771" as="sourcePoint" />
            <mxPoint x="300" y="801" as="targetPoint" />
          </mxGeometry>
        </mxCell>
        <mxCell id="2L8aGsVkFupdmVweLym8-123" value="短信通知" style="rounded=0;whiteSpace=wrap;html=1;" vertex="1" parent="WIyWlLk6GJQsqaUBKTNV-1">
          <mxGeometry x="260" y="801" width="80" height="30" as="geometry" />
        </mxCell>
        <mxCell id="2L8aGsVkFupdmVweLym8-125" value="" style="endArrow=none;html=1;exitX=0.5;exitY=1;exitDx=0;exitDy=0;" edge="1" parent="WIyWlLk6GJQsqaUBKTNV-1">
          <mxGeometry width="50" height="50" relative="1" as="geometry">
            <mxPoint x="590" y="410" as="sourcePoint" />
            <mxPoint x="590" y="440" as="targetPoint" />
          </mxGeometry>
        </mxCell>
        <mxCell id="2L8aGsVkFupdmVweLym8-204" value="" style="endArrow=none;html=1;exitX=0.5;exitY=1;exitDx=0;exitDy=0;" edge="1" parent="WIyWlLk6GJQsqaUBKTNV-1">
          <mxGeometry width="50" height="50" relative="1" as="geometry">
            <mxPoint x="2220" y="330" as="sourcePoint" />
            <mxPoint x="2219.5" y="360" as="targetPoint" />
          </mxGeometry>
        </mxCell>
        <mxCell id="2L8aGsVkFupdmVweLym8-205" value="选择tab" style="rhombus;whiteSpace=wrap;html=1;" vertex="1" parent="WIyWlLk6GJQsqaUBKTNV-1">
          <mxGeometry x="2180" y="360" width="80" height="80" as="geometry" />
        </mxCell>
        <mxCell id="2L8aGsVkFupdmVweLym8-206" value="" style="endArrow=none;html=1;" edge="1" parent="WIyWlLk6GJQsqaUBKTNV-1">
          <mxGeometry width="50" height="50" relative="1" as="geometry">
            <mxPoint x="1550" y="470" as="sourcePoint" />
            <mxPoint x="2590" y="470" as="targetPoint" />
          </mxGeometry>
        </mxCell>
        <mxCell id="2L8aGsVkFupdmVweLym8-207" value="" style="endArrow=classic;html=1;" edge="1" parent="WIyWlLk6GJQsqaUBKTNV-1">
          <mxGeometry width="50" height="50" relative="1" as="geometry">
            <mxPoint x="1550.5" y="471" as="sourcePoint" />
            <mxPoint x="1550.5" y="501" as="targetPoint" />
          </mxGeometry>
        </mxCell>
        <mxCell id="2L8aGsVkFupdmVweLym8-208" value="" style="endArrow=classic;html=1;" edge="1" parent="WIyWlLk6GJQsqaUBKTNV-1">
          <mxGeometry width="50" height="50" relative="1" as="geometry">
            <mxPoint x="2220" y="471" as="sourcePoint" />
            <mxPoint x="2220" y="501" as="targetPoint" />
          </mxGeometry>
        </mxCell>
        <mxCell id="2L8aGsVkFupdmVweLym8-209" value="" style="endArrow=classic;html=1;" edge="1" parent="WIyWlLk6GJQsqaUBKTNV-1">
          <mxGeometry width="50" height="50" relative="1" as="geometry">
            <mxPoint x="2589.5" y="471" as="sourcePoint" />
            <mxPoint x="2589.5" y="501" as="targetPoint" />
          </mxGeometry>
        </mxCell>
        <mxCell id="2L8aGsVkFupdmVweLym8-303" value="" style="edgeStyle=orthogonalEdgeStyle;rounded=0;orthogonalLoop=1;jettySize=auto;html=1;" edge="1" parent="WIyWlLk6GJQsqaUBKTNV-1" source="2L8aGsVkFupdmVweLym8-210" target="2L8aGsVkFupdmVweLym8-302">
          <mxGeometry relative="1" as="geometry" />
        </mxCell>
        <mxCell id="2L8aGsVkFupdmVweLym8-210" value="预约设置" style="rounded=0;whiteSpace=wrap;html=1;" vertex="1" parent="WIyWlLk6GJQsqaUBKTNV-1">
          <mxGeometry x="1491" y="501" width="120" height="60" as="geometry" />
        </mxCell>
        <mxCell id="2L8aGsVkFupdmVweLym8-211" value="预约记录" style="rounded=0;whiteSpace=wrap;html=1;" vertex="1" parent="WIyWlLk6GJQsqaUBKTNV-1">
          <mxGeometry x="2530" y="501" width="120" height="60" as="geometry" />
        </mxCell>
        <mxCell id="2L8aGsVkFupdmVweLym8-239" value="" style="edgeStyle=orthogonalEdgeStyle;rounded=0;orthogonalLoop=1;jettySize=auto;html=1;" edge="1" parent="WIyWlLk6GJQsqaUBKTNV-1" source="2L8aGsVkFupdmVweLym8-212" target="2L8aGsVkFupdmVweLym8-238">
          <mxGeometry relative="1" as="geometry" />
        </mxCell>
        <mxCell id="2L8aGsVkFupdmVweLym8-212" value="预约审批" style="rounded=0;whiteSpace=wrap;html=1;" vertex="1" parent="WIyWlLk6GJQsqaUBKTNV-1">
          <mxGeometry x="2160" y="501" width="120" height="60" as="geometry" />
        </mxCell>
        <mxCell id="2L8aGsVkFupdmVweLym8-221" value="" style="endArrow=none;html=1;exitX=0.5;exitY=1;exitDx=0;exitDy=0;" edge="1" parent="WIyWlLk6GJQsqaUBKTNV-1">
          <mxGeometry width="50" height="50" relative="1" as="geometry">
            <mxPoint x="2220" y="440" as="sourcePoint" />
            <mxPoint x="2220" y="470" as="targetPoint" />
          </mxGeometry>
        </mxCell>
        <mxCell id="2L8aGsVkFupdmVweLym8-241" value="" style="edgeStyle=orthogonalEdgeStyle;rounded=0;orthogonalLoop=1;jettySize=auto;html=1;" edge="1" parent="WIyWlLk6GJQsqaUBKTNV-1" source="2L8aGsVkFupdmVweLym8-238" target="2L8aGsVkFupdmVweLym8-240">
          <mxGeometry relative="1" as="geometry" />
        </mxCell>
        <mxCell id="2L8aGsVkFupdmVweLym8-238" value="进入预约申请列表页面" style="whiteSpace=wrap;html=1;rounded=0;" vertex="1" parent="WIyWlLk6GJQsqaUBKTNV-1">
          <mxGeometry x="2160" y="641" width="120" height="60" as="geometry" />
        </mxCell>
        <mxCell id="2L8aGsVkFupdmVweLym8-243" value="" style="edgeStyle=orthogonalEdgeStyle;rounded=0;orthogonalLoop=1;jettySize=auto;html=1;" edge="1" parent="WIyWlLk6GJQsqaUBKTNV-1" source="2L8aGsVkFupdmVweLym8-240" target="2L8aGsVkFupdmVweLym8-242">
          <mxGeometry relative="1" as="geometry" />
        </mxCell>
        <mxCell id="2L8aGsVkFupdmVweLym8-240" value="选择是否同意" style="rhombus;whiteSpace=wrap;html=1;rounded=0;" vertex="1" parent="WIyWlLk6GJQsqaUBKTNV-1">
          <mxGeometry x="2180" y="771" width="80" height="80" as="geometry" />
        </mxCell>
        <mxCell id="2L8aGsVkFupdmVweLym8-264" value="" style="edgeStyle=orthogonalEdgeStyle;rounded=0;orthogonalLoop=1;jettySize=auto;html=1;" edge="1" parent="WIyWlLk6GJQsqaUBKTNV-1" source="2L8aGsVkFupdmVweLym8-242" target="2L8aGsVkFupdmVweLym8-263">
          <mxGeometry relative="1" as="geometry" />
        </mxCell>
        <mxCell id="2L8aGsVkFupdmVweLym8-242" value="同意" style="whiteSpace=wrap;html=1;rounded=0;" vertex="1" parent="WIyWlLk6GJQsqaUBKTNV-1">
          <mxGeometry x="2160" y="941" width="120" height="60" as="geometry" />
        </mxCell>
        <mxCell id="2L8aGsVkFupdmVweLym8-254" value="否" style="text;html=1;strokeColor=none;fillColor=none;align=center;verticalAlign=middle;whiteSpace=wrap;rounded=0;" vertex="1" parent="WIyWlLk6GJQsqaUBKTNV-1">
          <mxGeometry x="2310" y="801" width="40" height="20" as="geometry" />
        </mxCell>
        <mxCell id="2L8aGsVkFupdmVweLym8-256" value="" style="endArrow=none;html=1;exitX=1;exitY=0.5;exitDx=0;exitDy=0;entryX=0;entryY=0.5;entryDx=0;entryDy=0;" edge="1" parent="WIyWlLk6GJQsqaUBKTNV-1" source="2L8aGsVkFupdmVweLym8-240" target="2L8aGsVkFupdmVweLym8-254">
          <mxGeometry width="50" height="50" relative="1" as="geometry">
            <mxPoint x="2460" y="990" as="sourcePoint" />
            <mxPoint x="2510" y="940" as="targetPoint" />
          </mxGeometry>
        </mxCell>
        <mxCell id="2L8aGsVkFupdmVweLym8-257" value="" style="endArrow=none;html=1;exitX=1;exitY=0.5;exitDx=0;exitDy=0;" edge="1" parent="WIyWlLk6GJQsqaUBKTNV-1" source="2L8aGsVkFupdmVweLym8-254">
          <mxGeometry width="50" height="50" relative="1" as="geometry">
            <mxPoint x="2460" y="990" as="sourcePoint" />
            <mxPoint x="2390" y="811" as="targetPoint" />
          </mxGeometry>
        </mxCell>
        <mxCell id="2L8aGsVkFupdmVweLym8-268" value="" style="edgeStyle=orthogonalEdgeStyle;rounded=0;orthogonalLoop=1;jettySize=auto;html=1;" edge="1" parent="WIyWlLk6GJQsqaUBKTNV-1" source="2L8aGsVkFupdmVweLym8-259" target="2L8aGsVkFupdmVweLym8-267">
          <mxGeometry relative="1" as="geometry" />
        </mxCell>
        <mxCell id="2L8aGsVkFupdmVweLym8-259" value="驳回" style="rounded=0;whiteSpace=wrap;html=1;" vertex="1" parent="WIyWlLk6GJQsqaUBKTNV-1">
          <mxGeometry x="2330" y="941" width="120" height="60" as="geometry" />
        </mxCell>
        <mxCell id="2L8aGsVkFupdmVweLym8-260" value="" style="endArrow=classic;html=1;" edge="1" parent="WIyWlLk6GJQsqaUBKTNV-1">
          <mxGeometry width="50" height="50" relative="1" as="geometry">
            <mxPoint x="2390" y="810" as="sourcePoint" />
            <mxPoint x="2390" y="940" as="targetPoint" />
          </mxGeometry>
        </mxCell>
        <mxCell id="2L8aGsVkFupdmVweLym8-266" value="" style="edgeStyle=orthogonalEdgeStyle;rounded=0;orthogonalLoop=1;jettySize=auto;html=1;" edge="1" parent="WIyWlLk6GJQsqaUBKTNV-1" source="2L8aGsVkFupdmVweLym8-263">
          <mxGeometry relative="1" as="geometry">
            <mxPoint x="2220" y="1241" as="targetPoint" />
          </mxGeometry>
        </mxCell>
        <mxCell id="2L8aGsVkFupdmVweLym8-263" value="确认访客人及访客时间时间" style="rhombus;whiteSpace=wrap;html=1;rounded=0;" vertex="1" parent="WIyWlLk6GJQsqaUBKTNV-1">
          <mxGeometry x="2180" y="1071" width="80" height="80" as="geometry" />
        </mxCell>
        <mxCell id="2L8aGsVkFupdmVweLym8-267" value="确认驳回方可人的访客申请" style="rhombus;whiteSpace=wrap;html=1;rounded=0;" vertex="1" parent="WIyWlLk6GJQsqaUBKTNV-1">
          <mxGeometry x="2350" y="1071" width="80" height="80" as="geometry" />
        </mxCell>
        <mxCell id="2L8aGsVkFupdmVweLym8-269" value="" style="endArrow=none;html=1;exitX=0.5;exitY=1;exitDx=0;exitDy=0;" edge="1" parent="WIyWlLk6GJQsqaUBKTNV-1" source="2L8aGsVkFupdmVweLym8-267">
          <mxGeometry width="50" height="50" relative="1" as="geometry">
            <mxPoint x="2460" y="980" as="sourcePoint" />
            <mxPoint x="2390" y="1200" as="targetPoint" />
          </mxGeometry>
        </mxCell>
        <mxCell id="2L8aGsVkFupdmVweLym8-270" value="" style="endArrow=classic;html=1;" edge="1" parent="WIyWlLk6GJQsqaUBKTNV-1">
          <mxGeometry width="50" height="50" relative="1" as="geometry">
            <mxPoint x="2390" y="1197.82" as="sourcePoint" />
            <mxPoint x="2220" y="1197.82" as="targetPoint" />
          </mxGeometry>
        </mxCell>
        <mxCell id="2L8aGsVkFupdmVweLym8-296" value="" style="endArrow=none;html=1;" edge="1" parent="WIyWlLk6GJQsqaUBKTNV-1">
          <mxGeometry width="50" height="50" relative="1" as="geometry">
            <mxPoint x="1330.4099999999999" y="741.0000000000002" as="sourcePoint" />
            <mxPoint x="1550.4099999999999" y="741.0000000000002" as="targetPoint" />
          </mxGeometry>
        </mxCell>
        <mxCell id="2L8aGsVkFupdmVweLym8-297" value="" style="endArrow=none;html=1;entryX=0.5;entryY=1;entryDx=0;entryDy=0;" edge="1" parent="WIyWlLk6GJQsqaUBKTNV-1">
          <mxGeometry width="50" height="50" relative="1" as="geometry">
            <mxPoint x="1550.4099999999999" y="741.0000000000002" as="sourcePoint" />
            <mxPoint x="1550.4099999999999" y="711" as="targetPoint" />
          </mxGeometry>
        </mxCell>
        <mxCell id="2L8aGsVkFupdmVweLym8-298" value="" style="endArrow=classic;html=1;" edge="1" parent="WIyWlLk6GJQsqaUBKTNV-1">
          <mxGeometry width="50" height="50" relative="1" as="geometry">
            <mxPoint x="1330.4099999999999" y="741.0000000000002" as="sourcePoint" />
            <mxPoint x="1330.4099999999999" y="781.0000000000002" as="targetPoint" />
          </mxGeometry>
        </mxCell>
        <mxCell id="2L8aGsVkFupdmVweLym8-299" value="" style="endArrow=classic;html=1;" edge="1" parent="WIyWlLk6GJQsqaUBKTNV-1">
          <mxGeometry width="50" height="50" relative="1" as="geometry">
            <mxPoint x="1550.4099999999999" y="741.0000000000002" as="sourcePoint" />
            <mxPoint x="1550.4099999999999" y="781.0000000000002" as="targetPoint" />
          </mxGeometry>
        </mxCell>
        <mxCell id="2L8aGsVkFupdmVweLym8-300" value="" style="endArrow=none;html=1;" edge="1" parent="WIyWlLk6GJQsqaUBKTNV-1">
          <mxGeometry width="50" height="50" relative="1" as="geometry">
            <mxPoint x="1550.4099999999999" y="741.0000000000002" as="sourcePoint" />
            <mxPoint x="1770.4099999999999" y="741.0000000000002" as="targetPoint" />
          </mxGeometry>
        </mxCell>
        <mxCell id="2L8aGsVkFupdmVweLym8-301" value="" style="endArrow=classic;html=1;" edge="1" parent="WIyWlLk6GJQsqaUBKTNV-1">
          <mxGeometry width="50" height="50" relative="1" as="geometry">
            <mxPoint x="1770.4099999999999" y="741.0000000000002" as="sourcePoint" />
            <mxPoint x="1770.4099999999999" y="781.0000000000002" as="targetPoint" />
          </mxGeometry>
        </mxCell>
        <mxCell id="2L8aGsVkFupdmVweLym8-302" value="选择设置的名单" style="rhombus;whiteSpace=wrap;html=1;rounded=0;" vertex="1" parent="WIyWlLk6GJQsqaUBKTNV-1">
          <mxGeometry x="1511" y="631" width="80" height="80" as="geometry" />
        </mxCell>
        <mxCell id="2L8aGsVkFupdmVweLym8-309" value="" style="edgeStyle=orthogonalEdgeStyle;rounded=0;orthogonalLoop=1;jettySize=auto;html=1;" edge="1" parent="WIyWlLk6GJQsqaUBKTNV-1" source="2L8aGsVkFupdmVweLym8-305" target="2L8aGsVkFupdmVweLym8-308">
          <mxGeometry relative="1" as="geometry" />
        </mxCell>
        <mxCell id="2L8aGsVkFupdmVweLym8-305" value="VIP访客设置" style="rounded=0;whiteSpace=wrap;html=1;" vertex="1" parent="WIyWlLk6GJQsqaUBKTNV-1">
          <mxGeometry x="1270" y="781" width="120" height="60" as="geometry" />
        </mxCell>
        <mxCell id="2L8aGsVkFupdmVweLym8-313" value="" style="edgeStyle=orthogonalEdgeStyle;rounded=0;orthogonalLoop=1;jettySize=auto;html=1;" edge="1" parent="WIyWlLk6GJQsqaUBKTNV-1" source="2L8aGsVkFupdmVweLym8-306" target="2L8aGsVkFupdmVweLym8-312">
          <mxGeometry relative="1" as="geometry" />
        </mxCell>
        <mxCell id="2L8aGsVkFupdmVweLym8-306" value="黑名单访客设置" style="rounded=0;whiteSpace=wrap;html=1;" vertex="1" parent="WIyWlLk6GJQsqaUBKTNV-1">
          <mxGeometry x="1491" y="781" width="120" height="60" as="geometry" />
        </mxCell>
        <mxCell id="2L8aGsVkFupdmVweLym8-317" value="" style="edgeStyle=orthogonalEdgeStyle;rounded=0;orthogonalLoop=1;jettySize=auto;html=1;" edge="1" parent="WIyWlLk6GJQsqaUBKTNV-1" source="2L8aGsVkFupdmVweLym8-307" target="2L8aGsVkFupdmVweLym8-316">
          <mxGeometry relative="1" as="geometry" />
        </mxCell>
        <mxCell id="2L8aGsVkFupdmVweLym8-307" value="白名单访客设置" style="rounded=0;whiteSpace=wrap;html=1;" vertex="1" parent="WIyWlLk6GJQsqaUBKTNV-1">
          <mxGeometry x="1710" y="781" width="120" height="60" as="geometry" />
        </mxCell>
        <mxCell id="2L8aGsVkFupdmVweLym8-311" value="" style="edgeStyle=orthogonalEdgeStyle;rounded=0;orthogonalLoop=1;jettySize=auto;html=1;" edge="1" parent="WIyWlLk6GJQsqaUBKTNV-1" source="2L8aGsVkFupdmVweLym8-308" target="2L8aGsVkFupdmVweLym8-310">
          <mxGeometry relative="1" as="geometry" />
        </mxCell>
        <mxCell id="2L8aGsVkFupdmVweLym8-308" value="填写访客规则" style="rhombus;whiteSpace=wrap;html=1;rounded=0;" vertex="1" parent="WIyWlLk6GJQsqaUBKTNV-1">
          <mxGeometry x="1290" y="911" width="80" height="80" as="geometry" />
        </mxCell>
        <mxCell id="2L8aGsVkFupdmVweLym8-310" value="生成VIP访客规则" style="ellipse;whiteSpace=wrap;html=1;rounded=0;" vertex="1" parent="WIyWlLk6GJQsqaUBKTNV-1">
          <mxGeometry x="1270" y="1081" width="120" height="60" as="geometry" />
        </mxCell>
        <mxCell id="2L8aGsVkFupdmVweLym8-315" value="" style="edgeStyle=orthogonalEdgeStyle;rounded=0;orthogonalLoop=1;jettySize=auto;html=1;" edge="1" parent="WIyWlLk6GJQsqaUBKTNV-1" source="2L8aGsVkFupdmVweLym8-312" target="2L8aGsVkFupdmVweLym8-314">
          <mxGeometry relative="1" as="geometry" />
        </mxCell>
        <mxCell id="2L8aGsVkFupdmVweLym8-312" value="填写访客规则" style="rhombus;whiteSpace=wrap;html=1;rounded=0;" vertex="1" parent="WIyWlLk6GJQsqaUBKTNV-1">
          <mxGeometry x="1511" y="911" width="80" height="80" as="geometry" />
        </mxCell>
        <mxCell id="2L8aGsVkFupdmVweLym8-314" value="生成黑名单访客规则" style="ellipse;whiteSpace=wrap;html=1;rounded=0;" vertex="1" parent="WIyWlLk6GJQsqaUBKTNV-1">
          <mxGeometry x="1491" y="1081" width="120" height="60" as="geometry" />
        </mxCell>
        <mxCell id="2L8aGsVkFupdmVweLym8-319" value="" style="edgeStyle=orthogonalEdgeStyle;rounded=0;orthogonalLoop=1;jettySize=auto;html=1;" edge="1" parent="WIyWlLk6GJQsqaUBKTNV-1" source="2L8aGsVkFupdmVweLym8-316" target="2L8aGsVkFupdmVweLym8-318">
          <mxGeometry relative="1" as="geometry" />
        </mxCell>
        <mxCell id="2L8aGsVkFupdmVweLym8-316" value="填写访客规则" style="rhombus;whiteSpace=wrap;html=1;rounded=0;" vertex="1" parent="WIyWlLk6GJQsqaUBKTNV-1">
          <mxGeometry x="1730" y="911" width="80" height="80" as="geometry" />
        </mxCell>
        <mxCell id="2L8aGsVkFupdmVweLym8-318" value="生成白名单访客规则" style="ellipse;whiteSpace=wrap;html=1;rounded=0;" vertex="1" parent="WIyWlLk6GJQsqaUBKTNV-1">
          <mxGeometry x="1710" y="1081" width="120" height="60" as="geometry" />
        </mxCell>
        <mxCell id="2L8aGsVkFupdmVweLym8-320" value="默认为白名单" style="text;html=1;strokeColor=none;fillColor=none;align=center;verticalAlign=middle;whiteSpace=wrap;rounded=0;" vertex="1" parent="WIyWlLk6GJQsqaUBKTNV-1">
          <mxGeometry x="1830" y="800" width="40" height="20" as="geometry" />
        </mxCell>
        <mxCell id="2L8aGsVkFupdmVweLym8-321" value="发送消息，提醒预约成功" style="ellipse;whiteSpace=wrap;html=1;rounded=0;" vertex="1" parent="WIyWlLk6GJQsqaUBKTNV-1">
          <mxGeometry x="2160" y="1240" width="120" height="60" as="geometry" />
        </mxCell>
        <mxCell id="2L8aGsVkFupdmVweLym8-324" value="" style="endArrow=none;html=1;exitX=0.5;exitY=0;exitDx=0;exitDy=0;" edge="1" parent="WIyWlLk6GJQsqaUBKTNV-1">
          <mxGeometry width="50" height="50" relative="1" as="geometry">
            <mxPoint x="3420" y="241" as="sourcePoint" />
            <mxPoint x="3420" y="191" as="targetPoint" />
          </mxGeometry>
        </mxCell>
        <mxCell id="2L8aGsVkFupdmVweLym8-327" value="" style="edgeStyle=orthogonalEdgeStyle;rounded=0;orthogonalLoop=1;jettySize=auto;html=1;" edge="1" parent="WIyWlLk6GJQsqaUBKTNV-1" source="2L8aGsVkFupdmVweLym8-325" target="2L8aGsVkFupdmVweLym8-326">
          <mxGeometry relative="1" as="geometry" />
        </mxCell>
        <mxCell id="2L8aGsVkFupdmVweLym8-325" value="访客管理" style="rounded=0;whiteSpace=wrap;html=1;" vertex="1" parent="WIyWlLk6GJQsqaUBKTNV-1">
          <mxGeometry x="3360" y="241" width="120" height="60" as="geometry" />
        </mxCell>
        <mxCell id="2L8aGsVkFupdmVweLym8-329" value="" style="edgeStyle=orthogonalEdgeStyle;rounded=0;orthogonalLoop=1;jettySize=auto;html=1;" edge="1" parent="WIyWlLk6GJQsqaUBKTNV-1" source="2L8aGsVkFupdmVweLym8-326" target="2L8aGsVkFupdmVweLym8-328">
          <mxGeometry relative="1" as="geometry" />
        </mxCell>
        <mxCell id="2L8aGsVkFupdmVweLym8-347" value="" style="edgeStyle=orthogonalEdgeStyle;rounded=0;orthogonalLoop=1;jettySize=auto;html=1;" edge="1" parent="WIyWlLk6GJQsqaUBKTNV-1" source="2L8aGsVkFupdmVweLym8-326" target="2L8aGsVkFupdmVweLym8-346">
          <mxGeometry relative="1" as="geometry" />
        </mxCell>
        <mxCell id="2L8aGsVkFupdmVweLym8-326" value="选择tab" style="rhombus;whiteSpace=wrap;html=1;rounded=0;" vertex="1" parent="WIyWlLk6GJQsqaUBKTNV-1">
          <mxGeometry x="3380" y="371" width="80" height="80" as="geometry" />
        </mxCell>
        <mxCell id="2L8aGsVkFupdmVweLym8-331" value="" style="edgeStyle=orthogonalEdgeStyle;rounded=0;orthogonalLoop=1;jettySize=auto;html=1;" edge="1" parent="WIyWlLk6GJQsqaUBKTNV-1" source="2L8aGsVkFupdmVweLym8-328" target="2L8aGsVkFupdmVweLym8-330">
          <mxGeometry relative="1" as="geometry" />
        </mxCell>
        <mxCell id="2L8aGsVkFupdmVweLym8-328" value="访客记录" style="whiteSpace=wrap;html=1;rounded=0;" vertex="1" parent="WIyWlLk6GJQsqaUBKTNV-1">
          <mxGeometry x="3260" y="532" width="120" height="60" as="geometry" />
        </mxCell>
        <mxCell id="2L8aGsVkFupdmVweLym8-343" value="" style="edgeStyle=orthogonalEdgeStyle;rounded=0;orthogonalLoop=1;jettySize=auto;html=1;" edge="1" parent="WIyWlLk6GJQsqaUBKTNV-1" source="2L8aGsVkFupdmVweLym8-330" target="2L8aGsVkFupdmVweLym8-342">
          <mxGeometry relative="1" as="geometry" />
        </mxCell>
        <mxCell id="2L8aGsVkFupdmVweLym8-330" value="按时间可以筛选" style="rhombus;whiteSpace=wrap;html=1;rounded=0;" vertex="1" parent="WIyWlLk6GJQsqaUBKTNV-1">
          <mxGeometry x="3360" y="661" width="80" height="80" as="geometry" />
        </mxCell>
        <mxCell id="2L8aGsVkFupdmVweLym8-338" value="" style="edgeStyle=orthogonalEdgeStyle;rounded=0;orthogonalLoop=1;jettySize=auto;html=1;" edge="1" parent="WIyWlLk6GJQsqaUBKTNV-1" source="2L8aGsVkFupdmVweLym8-328" target="2L8aGsVkFupdmVweLym8-337">
          <mxGeometry relative="1" as="geometry">
            <mxPoint x="3060" y="490.9999999999998" as="sourcePoint" />
          </mxGeometry>
        </mxCell>
        <mxCell id="2L8aGsVkFupdmVweLym8-345" value="" style="edgeStyle=orthogonalEdgeStyle;rounded=0;orthogonalLoop=1;jettySize=auto;html=1;" edge="1" parent="WIyWlLk6GJQsqaUBKTNV-1" source="2L8aGsVkFupdmVweLym8-337" target="2L8aGsVkFupdmVweLym8-344">
          <mxGeometry relative="1" as="geometry" />
        </mxCell>
        <mxCell id="2L8aGsVkFupdmVweLym8-337" value="按名单筛选" style="rhombus;whiteSpace=wrap;html=1;rounded=0;" vertex="1" parent="WIyWlLk6GJQsqaUBKTNV-1">
          <mxGeometry x="3210" y="661" width="80" height="80" as="geometry" />
        </mxCell>
        <mxCell id="2L8aGsVkFupdmVweLym8-342" value="记录列表" style="ellipse;whiteSpace=wrap;html=1;rounded=0;" vertex="1" parent="WIyWlLk6GJQsqaUBKTNV-1">
          <mxGeometry x="3340" y="787" width="120" height="60" as="geometry" />
        </mxCell>
        <mxCell id="2L8aGsVkFupdmVweLym8-344" value="记录列表" style="ellipse;whiteSpace=wrap;html=1;rounded=0;" vertex="1" parent="WIyWlLk6GJQsqaUBKTNV-1">
          <mxGeometry x="3190" y="791" width="120" height="60" as="geometry" />
        </mxCell>
        <mxCell id="2L8aGsVkFupdmVweLym8-346" value="" style="whiteSpace=wrap;html=1;rounded=0;" vertex="1" parent="WIyWlLk6GJQsqaUBKTNV-1">
          <mxGeometry x="3460" y="532" width="120" height="60" as="geometry" />
        </mxCell>
        <mxCell id="2L8aGsVkFupdmVweLym8-356" value="" style="edgeStyle=orthogonalEdgeStyle;rounded=0;orthogonalLoop=1;jettySize=auto;html=1;" edge="1" parent="WIyWlLk6GJQsqaUBKTNV-1" source="2L8aGsVkFupdmVweLym8-354" target="2L8aGsVkFupdmVweLym8-355">
          <mxGeometry relative="1" as="geometry" />
        </mxCell>
        <mxCell id="2L8aGsVkFupdmVweLym8-360" value="" style="edgeStyle=orthogonalEdgeStyle;rounded=0;orthogonalLoop=1;jettySize=auto;html=1;entryX=0.5;entryY=0;entryDx=0;entryDy=0;" edge="1" parent="WIyWlLk6GJQsqaUBKTNV-1" source="2L8aGsVkFupdmVweLym8-354" target="2L8aGsVkFupdmVweLym8-363">
          <mxGeometry relative="1" as="geometry">
            <mxPoint x="2330" y="2160" as="targetPoint" />
          </mxGeometry>
        </mxCell>
        <mxCell id="2L8aGsVkFupdmVweLym8-354" value="预约客户端" style="ellipse;whiteSpace=wrap;html=1;" vertex="1" parent="WIyWlLk6GJQsqaUBKTNV-1">
          <mxGeometry x="2020" y="1880" width="120" height="80" as="geometry" />
        </mxCell>
        <mxCell id="2L8aGsVkFupdmVweLym8-358" value="" style="edgeStyle=orthogonalEdgeStyle;rounded=0;orthogonalLoop=1;jettySize=auto;html=1;" edge="1" parent="WIyWlLk6GJQsqaUBKTNV-1" source="2L8aGsVkFupdmVweLym8-355" target="2L8aGsVkFupdmVweLym8-357">
          <mxGeometry relative="1" as="geometry" />
        </mxCell>
        <mxCell id="2L8aGsVkFupdmVweLym8-355" value="登录" style="whiteSpace=wrap;html=1;" vertex="1" parent="WIyWlLk6GJQsqaUBKTNV-1">
          <mxGeometry x="2020" y="2050" width="120" height="60" as="geometry" />
        </mxCell>
        <mxCell id="2L8aGsVkFupdmVweLym8-365" value="" style="edgeStyle=orthogonalEdgeStyle;rounded=0;orthogonalLoop=1;jettySize=auto;html=1;" edge="1" parent="WIyWlLk6GJQsqaUBKTNV-1" source="2L8aGsVkFupdmVweLym8-357">
          <mxGeometry relative="1" as="geometry">
            <mxPoint x="2330" y="2220" as="targetPoint" />
          </mxGeometry>
        </mxCell>
        <mxCell id="2L8aGsVkFupdmVweLym8-368" value="" style="edgeStyle=orthogonalEdgeStyle;rounded=0;orthogonalLoop=1;jettySize=auto;html=1;startArrow=none;" edge="1" parent="WIyWlLk6GJQsqaUBKTNV-1" source="2L8aGsVkFupdmVweLym8-369" target="2L8aGsVkFupdmVweLym8-367">
          <mxGeometry relative="1" as="geometry" />
        </mxCell>
        <mxCell id="2L8aGsVkFupdmVweLym8-357" value="判断是否有账号" style="rhombus;whiteSpace=wrap;html=1;" vertex="1" parent="WIyWlLk6GJQsqaUBKTNV-1">
          <mxGeometry x="2040" y="2180" width="80" height="80" as="geometry" />
        </mxCell>
        <mxCell id="2L8aGsVkFupdmVweLym8-370" value="" style="edgeStyle=orthogonalEdgeStyle;rounded=0;orthogonalLoop=1;jettySize=auto;html=1;" edge="1" parent="WIyWlLk6GJQsqaUBKTNV-1" source="2L8aGsVkFupdmVweLym8-363" target="2L8aGsVkFupdmVweLym8-369">
          <mxGeometry relative="1" as="geometry" />
        </mxCell>
        <mxCell id="2L8aGsVkFupdmVweLym8-363" value="注册" style="rounded=0;whiteSpace=wrap;html=1;" vertex="1" parent="WIyWlLk6GJQsqaUBKTNV-1">
          <mxGeometry x="2270" y="2260" width="120" height="60" as="geometry" />
        </mxCell>
        <mxCell id="2L8aGsVkFupdmVweLym8-366" value="无" style="text;html=1;strokeColor=none;fillColor=none;align=center;verticalAlign=middle;whiteSpace=wrap;rounded=0;" vertex="1" parent="WIyWlLk6GJQsqaUBKTNV-1">
          <mxGeometry x="2180" y="2190" width="40" height="20" as="geometry" />
        </mxCell>
        <mxCell id="2L8aGsVkFupdmVweLym8-373" value="" style="edgeStyle=orthogonalEdgeStyle;rounded=0;orthogonalLoop=1;jettySize=auto;html=1;" edge="1" parent="WIyWlLk6GJQsqaUBKTNV-1" source="2L8aGsVkFupdmVweLym8-367">
          <mxGeometry relative="1" as="geometry">
            <mxPoint x="2080" y="2490" as="targetPoint" />
          </mxGeometry>
        </mxCell>
        <mxCell id="2L8aGsVkFupdmVweLym8-379" style="edgeStyle=orthogonalEdgeStyle;rounded=0;orthogonalLoop=1;jettySize=auto;html=1;" edge="1" parent="WIyWlLk6GJQsqaUBKTNV-1" source="2L8aGsVkFupdmVweLym8-367">
          <mxGeometry relative="1" as="geometry">
            <mxPoint x="1830" y="2660" as="targetPoint" />
          </mxGeometry>
        </mxCell>
        <mxCell id="2L8aGsVkFupdmVweLym8-367" value="登录成功 \ 显示页面" style="whiteSpace=wrap;html=1;" vertex="1" parent="WIyWlLk6GJQsqaUBKTNV-1">
          <mxGeometry x="2020" y="2350" width="120" height="60" as="geometry" />
        </mxCell>
        <mxCell id="2L8aGsVkFupdmVweLym8-369" value="" style="shape=waypoint;size=6;pointerEvents=1;points=[];fillColor=#ffffff;resizable=0;rotatable=0;perimeter=centerPerimeter;snapToPoint=1;rounded=0;" vertex="1" parent="WIyWlLk6GJQsqaUBKTNV-1">
          <mxGeometry x="2060" y="2270" width="40" height="40" as="geometry" />
        </mxCell>
        <mxCell id="2L8aGsVkFupdmVweLym8-371" value="" style="edgeStyle=orthogonalEdgeStyle;rounded=0;orthogonalLoop=1;jettySize=auto;html=1;endArrow=none;" edge="1" parent="WIyWlLk6GJQsqaUBKTNV-1" source="2L8aGsVkFupdmVweLym8-357" target="2L8aGsVkFupdmVweLym8-369">
          <mxGeometry relative="1" as="geometry">
            <mxPoint x="2080" y="2260" as="sourcePoint" />
            <mxPoint x="2080" y="2350" as="targetPoint" />
          </mxGeometry>
        </mxCell>
        <mxCell id="2L8aGsVkFupdmVweLym8-376" value="" style="edgeStyle=orthogonalEdgeStyle;rounded=0;orthogonalLoop=1;jettySize=auto;html=1;" edge="1" parent="WIyWlLk6GJQsqaUBKTNV-1" source="2L8aGsVkFupdmVweLym8-374" target="2L8aGsVkFupdmVweLym8-375">
          <mxGeometry relative="1" as="geometry" />
        </mxCell>
        <mxCell id="2L8aGsVkFupdmVweLym8-374" value="选择访客预约" style="rhombus;whiteSpace=wrap;html=1;" vertex="1" parent="WIyWlLk6GJQsqaUBKTNV-1">
          <mxGeometry x="2040" y="2490" width="80" height="80" as="geometry" />
        </mxCell>
        <mxCell id="2L8aGsVkFupdmVweLym8-386" value="" style="edgeStyle=orthogonalEdgeStyle;rounded=0;orthogonalLoop=1;jettySize=auto;html=1;" edge="1" parent="WIyWlLk6GJQsqaUBKTNV-1" source="2L8aGsVkFupdmVweLym8-375" target="2L8aGsVkFupdmVweLym8-385">
          <mxGeometry relative="1" as="geometry" />
        </mxCell>
        <mxCell id="2L8aGsVkFupdmVweLym8-375" value="进入预约填写信息页面" style="whiteSpace=wrap;html=1;" vertex="1" parent="WIyWlLk6GJQsqaUBKTNV-1">
          <mxGeometry x="2020" y="2660" width="120" height="60" as="geometry" />
        </mxCell>
        <mxCell id="2L8aGsVkFupdmVweLym8-405" style="edgeStyle=orthogonalEdgeStyle;rounded=0;orthogonalLoop=1;jettySize=auto;html=1;" edge="1" parent="WIyWlLk6GJQsqaUBKTNV-1" source="2L8aGsVkFupdmVweLym8-380">
          <mxGeometry relative="1" as="geometry">
            <mxPoint x="2080" y="2880" as="targetPoint" />
            <Array as="points">
              <mxPoint x="1830" y="2880" />
            </Array>
          </mxGeometry>
        </mxCell>
        <mxCell id="2L8aGsVkFupdmVweLym8-380" value="判断是否为Vip \&amp;nbsp; 黑名单" style="rhombus;whiteSpace=wrap;html=1;" vertex="1" parent="WIyWlLk6GJQsqaUBKTNV-1">
          <mxGeometry x="1790" y="2660" width="80" height="80" as="geometry" />
        </mxCell>
        <mxCell id="2L8aGsVkFupdmVweLym8-388" value="" style="edgeStyle=orthogonalEdgeStyle;rounded=0;orthogonalLoop=1;jettySize=auto;html=1;" edge="1" parent="WIyWlLk6GJQsqaUBKTNV-1" source="2L8aGsVkFupdmVweLym8-385" target="2L8aGsVkFupdmVweLym8-387">
          <mxGeometry relative="1" as="geometry" />
        </mxCell>
        <mxCell id="2L8aGsVkFupdmVweLym8-390" value="" style="edgeStyle=orthogonalEdgeStyle;rounded=0;orthogonalLoop=1;jettySize=auto;html=1;" edge="1" parent="WIyWlLk6GJQsqaUBKTNV-1" source="2L8aGsVkFupdmVweLym8-385" target="2L8aGsVkFupdmVweLym8-389">
          <mxGeometry relative="1" as="geometry" />
        </mxCell>
        <mxCell id="2L8aGsVkFupdmVweLym8-385" value="提交表单" style="whiteSpace=wrap;html=1;" vertex="1" parent="WIyWlLk6GJQsqaUBKTNV-1">
          <mxGeometry x="2020" y="2800" width="120" height="60" as="geometry" />
        </mxCell>
        <mxCell id="2L8aGsVkFupdmVweLym8-387" value="申请添加到后台管理的申请列表" style="whiteSpace=wrap;html=1;" vertex="1" parent="WIyWlLk6GJQsqaUBKTNV-1">
          <mxGeometry x="1900" y="3000" width="120" height="60" as="geometry" />
        </mxCell>
        <mxCell id="2L8aGsVkFupdmVweLym8-389" value="通知企业微信审批" style="whiteSpace=wrap;html=1;" vertex="1" parent="WIyWlLk6GJQsqaUBKTNV-1">
          <mxGeometry x="2140" y="3000" width="120" height="60" as="geometry" />
        </mxCell>
        <mxCell id="2L8aGsVkFupdmVweLym8-394" value="" style="edgeStyle=orthogonalEdgeStyle;rounded=0;orthogonalLoop=1;jettySize=auto;html=1;" edge="1" parent="WIyWlLk6GJQsqaUBKTNV-1">
          <mxGeometry relative="1" as="geometry">
            <mxPoint x="2079" y="3110" as="sourcePoint" />
            <mxPoint x="2079" y="3195" as="targetPoint" />
          </mxGeometry>
        </mxCell>
        <mxCell id="2L8aGsVkFupdmVweLym8-392" value="" style="strokeWidth=2;html=1;shape=mxgraph.flowchart.annotation_2;align=left;labelPosition=right;pointerEvents=1;rotation=-90;" vertex="1" parent="WIyWlLk6GJQsqaUBKTNV-1">
          <mxGeometry x="2053" y="2970" width="50" height="240" as="geometry" />
        </mxCell>
        <mxCell id="2L8aGsVkFupdmVweLym8-397" value="" style="edgeStyle=orthogonalEdgeStyle;rounded=0;orthogonalLoop=1;jettySize=auto;html=1;" edge="1" parent="WIyWlLk6GJQsqaUBKTNV-1" source="2L8aGsVkFupdmVweLym8-395" target="2L8aGsVkFupdmVweLym8-396">
          <mxGeometry relative="1" as="geometry" />
        </mxCell>
        <mxCell id="2L8aGsVkFupdmVweLym8-398" value="否" style="edgeLabel;html=1;align=center;verticalAlign=middle;resizable=0;points=[];" vertex="1" connectable="0" parent="2L8aGsVkFupdmVweLym8-397">
          <mxGeometry x="-0.2984" y="4" relative="1" as="geometry">
            <mxPoint as="offset" />
          </mxGeometry>
        </mxCell>
        <mxCell id="2L8aGsVkFupdmVweLym8-400" value="" style="edgeStyle=orthogonalEdgeStyle;rounded=0;orthogonalLoop=1;jettySize=auto;html=1;" edge="1" parent="WIyWlLk6GJQsqaUBKTNV-1" source="2L8aGsVkFupdmVweLym8-395" target="2L8aGsVkFupdmVweLym8-399">
          <mxGeometry relative="1" as="geometry" />
        </mxCell>
        <mxCell id="2L8aGsVkFupdmVweLym8-395" value="是否通过审批" style="rhombus;whiteSpace=wrap;html=1;" vertex="1" parent="WIyWlLk6GJQsqaUBKTNV-1">
          <mxGeometry x="2039" y="3195" width="80" height="80" as="geometry" />
        </mxCell>
        <mxCell id="2L8aGsVkFupdmVweLym8-396" value="发送驳回访客申请通知" style="ellipse;whiteSpace=wrap;html=1;" vertex="1" parent="WIyWlLk6GJQsqaUBKTNV-1">
          <mxGeometry x="2189" y="3375" width="120" height="60" as="geometry" />
        </mxCell>
        <mxCell id="2L8aGsVkFupdmVweLym8-399" value="发送通过访客申请通知" style="ellipse;whiteSpace=wrap;html=1;" vertex="1" parent="WIyWlLk6GJQsqaUBKTNV-1">
          <mxGeometry x="2019" y="3365" width="120" height="60" as="geometry" />
        </mxCell>
        <mxCell id="2L8aGsVkFupdmVweLym8-406" value="是" style="text;html=1;align=center;verticalAlign=middle;resizable=0;points=[];autosize=1;strokeColor=none;" vertex="1" parent="WIyWlLk6GJQsqaUBKTNV-1">
          <mxGeometry x="1825" y="2830" width="30" height="20" as="geometry" />
        </mxCell>
      </root>
    </mxGraphModel>
  </diagram>
</mxfile>
